<svg width="40" height="28" fill="none" xmlns="http://www.w3.org/2000/svg"><rect width="40" height="28" rx="6" fill="#8FCFF5"/><g transform="translate(0, -6)" clip-path="url(#a)"><path fill-rule="evenodd" clip-rule="evenodd" d="m21.283 10.408 8.1 6.077a1.55 1.55 0 0 1-.933 2.783h-16.9a1.524 1.524 0 0 1-1.233-.617 1.541 1.541 0 0 1 .3-2.166l8.1-6.077a2.2 2.2 0 0 1 2.566 0Zm8.297 17.148c.267.267.418.628.42 1.006a1.434 1.434 0 0 1-1.425 1.433h-17.15a1.433 1.433 0 0 1 0-2.859h.358a.358.358 0 0 0 .359-.358v-4.642a.726.726 0 0 1 .716-.717H15a.717.717 0 0 1 .717.708v4.651a.358.358 0 0 0 .358.358h1.792a.367.367 0 0 0 .35-.366v-4.643a.717.717 0 0 1 .708-.717h2.15a.716.716 0 0 1 .708.717v4.651a.358.358 0 0 0 .359.358h1.783a.358.358 0 0 0 .358-.358v-4.642a.725.725 0 0 1 .717-.717h2.142a.717.717 0 0 1 .716.708v4.651a.358.358 0 0 0 .359.358h.358c.377.003.739.153 1.005.42Z" fill="#fff"/></g><defs><clipPath id="a"><path fill="#fff" transform="translate(10 10)" d="M0 0h20v20H0z"/></clipPath></defs></svg>